# xmcd
#
# Track frame offsets:
#	150
#	17093
#	65857
#	97213
#
# Disc length: 1581 seconds
#
# Revision: 0
# Processed by: cddbd v1.4PL0 Copyright (c) Steve Scherf et al.
# Submitted via: EasyCDDAExtractor 4.6.0.1
#
DISCID=36062b04
DTITLE=Tommy Castro - Mystic Theater Live EP
DYEAR=1900
DGENRE=Blues
TTITLE0=Sticks and Stones
TTITLE1=Chairman of the Board
TTITLE2=Mannish Boy
TTITLE3=Guilty of Love
EXTD=
EXTT0=
EXTT1=
EXTT2=
EXTT3=
PLAYORDER=
